<?xml version="1.0" encoding="utf-8"?>
<!-- Generator: Adobe Illustrator 21.1.0, SVG Export Plug-In . SVG Version: 6.00 Build 0)  -->
<svg version="1.1" id="Layer_1" xmlns="http://www.w3.org/2000/svg" xmlns:xlink="http://www.w3.org/1999/xlink" x="0px" y="0px"
	 viewBox="0 0 45 45" style="enable-background:new 0 0 45 45;" xml:space="preserve">
<style type="text/css">
	.st0{fill:#7C7C7C;}
</style>
<g>
	<g>
		<path class="st0" d="M42.2,0H2.8C1.3,0,0,1.3,0,2.8v39.4C0,43.7,1.3,45,2.8,45h39.4c1.6,0,2.8-1.3,2.8-2.8V2.8
			C45,1.3,43.7,0,42.2,0z M42.2,42.2l-39.4,0V2.8h39.4V42.2z"/>
	</g>
</g>
<g>
	<g>
		<path class="st0" d="M23.5,8.8c-0.5-0.5-1.4-0.5-2,0l-8.4,8.4l2,2l6-6v16.3h2.8V13.2l6,6l2-2L23.5,8.8z"/>
	</g>
</g>
<g>
	<g>
		<rect x="16.9" y="33.8" class="st0" width="11.3" height="2.8"/>
	</g>
</g>
</svg>
